<?xml version="1.0" standalone="no"?>
<!DOCTYPE svg PUBLIC "-//W3C//DTD SVG 20010904//EN"
 "http://www.w3.org/TR/2001/REC-SVG-20010904/DTD/svg10.dtd">
<svg version="1.0" xmlns="http://www.w3.org/2000/svg"
 width="1080.000000pt" height="1080.000000pt" viewBox="0 0 1080.000000 1080.000000"
 preserveAspectRatio="xMidYMid meet">

<g transform="translate(0.000000,1080.000000) scale(0.100000,-0.100000)"
fill="#000000" stroke="none">
<path d="M0 5400 l0 -5400 5400 0 5400 0 0 5400 0 5400 -5400 0 -5400 0 0
-5400z m5643 3886 c109 -64 200 -116 202 -116 4 0 431 -248 465 -270 8 -5 33
-19 55 -31 22 -12 119 -68 217 -125 97 -57 181 -104 187 -104 6 0 11 -3 11 -7
0 -5 10 -13 23 -19 35 -17 109 -59 315 -180 106 -63 195 -114 197 -114 4 0
372 -213 415 -240 8 -6 31 -19 51 -29 20 -11 129 -74 242 -140 114 -67 211
-121 217 -121 5 0 10 -3 10 -7 0 -5 10 -13 23 -19 34 -16 414 -235 477 -274 8
-5 39 -22 68 -37 l52 -27 -2 -906 -3 -905 -85 0 -85 0 0 854 0 854 -67 36
c-37 20 -73 42 -80 49 -6 6 -15 12 -19 12 -4 0 -95 51 -201 113 -106 62 -200
116 -208 120 -8 4 -22 11 -30 17 -49 31 -480 280 -485 280 -4 0 -27 14 -52 30
-24 17 -46 30 -48 30 -2 0 -104 59 -225 130 -122 72 -224 130 -225 130 -4 0
-385 221 -415 240 -8 5 -31 18 -50 28 -19 10 -128 73 -242 140 -114 67 -209
122 -212 122 -3 0 -25 14 -49 30 -25 17 -47 30 -50 30 -3 0 -106 59 -227 130
-122 72 -224 130 -226 130 -2 0 -42 23 -89 50 l-85 51 -112 -66 c-62 -36 -120
-70 -128 -75 -8 -5 -33 -19 -55 -31 -22 -12 -130 -75 -240 -139 -195 -115
-232 -136 -325 -188 -25 -14 -148 -86 -275 -161 -126 -74 -246 -143 -265 -153
-19 -10 -42 -23 -50 -28 -24 -16 -401 -235 -451 -262 -79 -44 -94 -53 -99 -58
-3 -3 -16 -11 -30 -18 -14 -7 -41 -22 -60 -33 -19 -11 -136 -79 -260 -151
-124 -72 -336 -195 -471 -274 -135 -79 -260 -152 -278 -162 -18 -9 -40 -21
-49 -27 -10 -5 -47 -27 -85 -48 l-67 -38 0 -850 0 -850 -87 3 -88 3 -3 895 -2
895 100 58 c55 32 119 69 142 81 24 13 142 81 263 152 121 71 241 141 268 154
26 14 47 28 47 32 0 5 5 8 11 8 5 0 103 55 217 122 114 67 223 130 242 140 19
10 42 23 50 28 8 5 105 61 215 125 110 63 207 120 215 125 8 6 22 13 30 17 8
4 116 66 240 139 222 130 261 152 350 202 63 35 432 250 450 263 8 5 27 15 43
22 15 6 27 15 27 19 0 4 5 8 11 8 5 0 126 68 267 150 141 83 264 154 272 159
21 12 32 7 253 -123z m-102 -1758 c14 -26 -6 -50 -40 -46 -32 4 -42 45 -16 64
21 15 42 8 56 -18z m1405 -419 c20 -23 11 -51 -20 -57 -39 -8 -63 47 -28 67
24 14 26 14 48 -10z m-2921 -140 c4 -5 4 -21 1 -35 -5 -17 -13 -24 -31 -24
-29 0 -47 27 -34 52 11 20 54 24 64 7z m2083 -476 c3 -25 -1 -33 -19 -38 -30
-10 -53 16 -45 50 5 21 12 26 34 23 22 -2 28 -9 30 -35z m-1403 -143 c4 -12 1
-27 -5 -35 -27 -33 -78 -5 -65 35 4 14 15 20 35 20 20 0 31 -6 35 -20z m2779
-359 c33 -36 -18 -83 -52 -49 -23 23 -7 68 23 68 7 0 20 -9 29 -19z m-4116
-162 c4 -34 -20 -54 -47 -39 -20 10 -29 49 -14 64 4 4 19 6 33 4 19 -2 26 -10
28 -29z m690 -17 c-4 -37 -51 -44 -69 -11 -10 20 -9 25 11 41 30 24 63 8 58
-30z m2867 -317 c0 -27 -3 -30 -30 -30 -21 0 -31 5 -33 18 -6 33 6 49 35 45
24 -3 28 -8 28 -33z m-4822 -577 c-65 -65 -121 -118 -124 -118 -9 0 -239 229
-239 238 0 4 53 60 117 124 l118 118 122 -122 123 -123 -117 -117z m6797 240
l122 -121 -121 -121 -121 -121 -122 122 -123 123 120 120 c66 66 121 120 122
120 1 0 57 -55 123 -122z m-3260 87 c19 -23 3 -57 -27 -53 -34 4 -51 31 -34
52 17 20 45 21 61 1z m-1956 -11 c19 -19 20 -36 4 -52 -32 -32 -79 2 -60 43
13 29 34 32 56 9z m941 -56 c8 -22 -11 -48 -34 -48 -38 0 -56 51 -25 68 23 13
52 3 59 -20z m2813 -66 c-2 -23 -8 -27 -33 -27 -24 0 -31 5 -33 24 -5 32 23
54 50 40 13 -7 18 -19 16 -37z m-1170 -144 c32 -32 -8 -80 -48 -58 -34 18 -19
70 20 70 9 0 21 -5 28 -12z m857 -62 c17 -12 18 -18 7 -40 -14 -30 -42 -34
-65 -8 -15 16 -15 20 -1 40 18 25 33 28 59 8z m-1347 -108 c5 -38 -28 -54 -58
-30 -20 16 -21 21 -11 41 18 33 65 26 69 -11z m-399 -97 c14 -26 -8 -54 -39
-49 -25 3 -36 27 -26 54 8 20 53 17 65 -5z m1829 -103 c21 -21 14 -57 -12 -64
-32 -8 -46 2 -46 30 0 24 17 46 35 46 6 0 16 -5 23 -12z m-1364 -41 c11 -8 17
-23 14 -38 -2 -19 -9 -24 -33 -24 -24 0 -31 5 -33 23 -3 22 13 52 27 52 4 0
15 -6 25 -13z m-3742 -549 l3 -512 149 -88 c81 -48 178 -104 215 -124 61 -34
437 -252 471 -274 8 -5 31 -18 50 -28 19 -10 140 -80 268 -155 128 -75 234
-137 236 -137 4 0 436 -250 466 -270 8 -5 31 -18 50 -28 19 -10 132 -75 250
-144 118 -69 316 -184 440 -256 124 -72 241 -140 260 -151 19 -11 42 -24 50
-28 8 -3 95 -53 192 -110 141 -83 182 -103 200 -97 13 4 113 60 223 124 199
117 240 141 325 188 25 13 52 31 61 38 8 8 19 14 22 14 4 0 98 53 210 119 111
65 220 129 242 141 22 13 60 34 85 48 25 14 142 82 260 152 118 69 222 129
230 133 8 4 22 11 30 17 34 21 488 285 520 302 19 10 42 23 50 28 28 18 455
266 500 291 25 13 47 26 50 29 3 3 16 11 30 18 30 15 79 43 286 165 l159 94 3
506 2 507 92 0 91 0 -6 -227 c-4 -124 -7 -375 -7 -557 l0 -331 -147 -85 c-80
-47 -166 -97 -192 -112 -25 -15 -53 -31 -61 -35 -8 -3 -143 -82 -300 -174
-157 -91 -310 -180 -340 -197 -30 -16 -178 -102 -329 -191 -151 -88 -276 -161
-278 -161 -2 0 -133 -76 -291 -169 -158 -93 -309 -181 -337 -196 -27 -15 -167
-97 -310 -180 -251 -147 -285 -167 -385 -223 -25 -14 -144 -84 -265 -155 -121
-72 -227 -130 -236 -129 -9 0 -93 46 -187 101 -94 56 -173 101 -175 101 -2 0
-114 64 -248 143 -134 79 -251 146 -259 150 -8 4 -22 11 -30 17 -30 19 -476
277 -490 284 -8 3 -28 15 -45 26 -16 11 -37 23 -45 27 -8 4 -100 57 -205 118
-104 61 -210 123 -235 137 -106 59 -135 76 -327 189 -111 66 -204 119 -206
119 -4 0 -489 281 -517 300 -8 6 -26 16 -40 23 -14 6 -121 68 -238 137 l-212
124 0 563 0 563 85 0 85 0 2 -512z m3453 248 c0 -36 -26 -56 -49 -37 -16 14
-22 52 -9 65 4 4 19 6 33 4 20 -2 25 -8 25 -32z m1209 8 c21 -8 21 -48 0 -65
-20 -17 -48 -1 -52 31 -5 31 19 47 52 34z m-743 -110 c17 -21 0 -49 -31 -49
-31 0 -48 28 -31 49 8 9 21 16 31 16 10 0 23 -7 31 -16z m-226 -368 c0 -38
-28 -57 -51 -34 -11 11 -15 25 -10 43 5 21 12 26 34 23 22 -2 27 -8 27 -32z
m206 -132 c16 -19 3 -43 -29 -55 -18 -7 -25 -4 -34 16 -20 44 32 76 63 39z
m-266 -330 c19 -20 16 -43 -7 -58 -38 -23 -78 35 -42 61 23 17 29 16 49 -3z"/>
</g>
</svg>
